<svg width="181" height="28" viewBox="0 0 181 28" fill="none" xmlns="http://www.w3.org/2000/svg">
<path d="M0 21.56L11.0024 27.9177V24.3765V22.4494V22.433L4.74353 18.8259V11.5788L3.04706 10.6071L0 8.84473V21.56Z" fill="#85437F"/>
<path d="M21.8401 10.6071L20.1601 11.5788V18.8259L13.8848 22.433V22.4494V24.3765V27.9012L24.8871 21.56V8.84473L21.8401 10.6071Z" fill="#782471"/>
<path d="M12.4518 0L1.44946 6.35765L4.49652 8.12L6.17652 9.09176L12.4518 5.46823L18.7106 9.09176L20.3906 8.12L23.4542 6.35765L12.4518 0Z" fill="#8F568A"/>
<path d="M12.4517 14.3789V20.3906L17.6564 17.3765V11.3647L12.4517 14.3789Z" fill="#782471"/>
<path d="M7.23071 17.3765L12.4354 20.3906V14.3789L7.23071 11.3647V17.3765Z" fill="#85437F"/>
<path d="M12.4519 8.35059L7.23071 11.3647L12.4519 14.3624L17.6566 11.3647L12.4519 8.35059Z" fill="#8F568A"/>
<path d="M40.1869 3.8672C40.1869 4.46673 40.0499 4.90353 39.7758 5.1776C39.5189 5.43454 39.0906 5.56301 38.4911 5.56301C37.8916 5.56301 37.4548 5.43454 37.1807 5.1776C36.9238 4.90353 36.7953 4.46673 36.7953 3.8672C36.7953 3.26767 36.9238 2.83943 37.1807 2.58249C37.4548 2.30842 37.8916 2.17139 38.4911 2.17139C39.0906 2.17139 39.5189 2.30842 39.7758 2.58249C40.0499 2.83943 40.1869 3.26767 40.1869 3.8672ZM33.4037 23.4461C33.6435 23.4632 33.8918 23.4718 34.1488 23.4718C34.3886 23.4718 34.6798 23.4718 35.0224 23.4718C35.4335 23.4718 35.7675 23.4461 36.0245 23.3947C36.2985 23.3433 36.5212 23.2234 36.6925 23.035C36.8638 22.8637 36.9837 22.6153 37.0522 22.2899C37.1207 21.9644 37.155 21.5191 37.155 20.9538V7.7984H39.8529V20.9538C39.8529 21.8616 39.7672 22.6153 39.5959 23.2149C39.4246 23.8144 39.1506 24.294 38.7737 24.6537C38.3969 25.0135 37.9087 25.2618 37.3092 25.3989C36.7096 25.553 35.9731 25.6301 35.0995 25.6301C34.4486 25.6301 33.9604 25.6216 33.6349 25.6044C33.3094 25.6044 33.0782 25.5959 32.9412 25.5787L33.4037 23.4461Z" fill="#571459"/>
<path d="M45.2153 15.4296C45.2153 16.149 45.2496 16.7314 45.3181 17.1768C45.4037 17.6221 45.5579 17.9733 45.7806 18.2302C46.0204 18.4872 46.3459 18.667 46.757 18.7698C47.1681 18.8554 47.7162 18.8983 48.4014 18.8983C48.8981 18.8983 49.5234 18.8983 50.2771 18.8983C51.0479 18.8983 52.0414 18.8811 53.2576 18.8469L52.7951 21.0823C52.2641 21.0994 51.8101 21.108 51.4333 21.108C51.0565 21.1251 50.7053 21.1336 50.3798 21.1336C50.0715 21.1336 49.7632 21.1336 49.4549 21.1336C49.1465 21.1336 48.7954 21.1336 48.4014 21.1336C47.1852 21.1336 46.1917 20.9966 45.4209 20.7225C44.6672 20.4313 44.0677 20.0288 43.6223 19.5149C43.1941 18.9839 42.9029 18.3501 42.7487 17.6136C42.5945 16.8599 42.5174 16.0291 42.5174 15.1212V13.6824C42.5174 12.706 42.5945 11.8324 42.7487 11.0616C42.92 10.2736 43.2197 9.61412 43.648 9.08311C44.0933 8.53496 44.7014 8.11529 45.4723 7.82409C46.2602 7.53289 47.2794 7.38729 48.5299 7.38729C49.6775 7.38729 50.6111 7.52433 51.3305 7.7984C52.0671 8.05534 52.6409 8.41506 53.052 8.87755C53.4803 9.32292 53.7715 9.84536 53.9256 10.4449C54.0798 11.0273 54.1569 11.6354 54.1569 12.2692V12.6546C54.1569 13.2712 54.1226 13.7594 54.0541 14.1192C53.9856 14.4789 53.8742 14.7615 53.7201 14.9671C53.5659 15.1555 53.3689 15.284 53.1291 15.3525C52.9064 15.4039 52.6324 15.4296 52.3069 15.4296H45.2153ZM48.4014 9.51991C47.7162 9.51991 47.1681 9.57129 46.757 9.67407C46.3459 9.77685 46.0204 9.97384 45.7806 10.265C45.5579 10.5391 45.4037 10.9245 45.3181 11.4213C45.2496 11.918 45.2153 12.5604 45.2153 13.3483H51.6132V12.4747C51.6132 11.9095 51.5618 11.4384 51.459 11.0616C51.3733 10.6676 51.2021 10.3592 50.9451 10.1366C50.7053 9.91388 50.3798 9.75972 49.9687 9.67407C49.5576 9.57129 49.0352 9.51991 48.4014 9.51991Z" fill="#571459"/>
<path d="M56.7769 4.66372L59.4748 4.17553V7.7984H64.3566L63.8941 10.0338H59.4748V16.2004C59.4748 16.7656 59.5004 17.2281 59.5518 17.5879C59.6204 17.9476 59.7403 18.2216 59.9116 18.4101C60.0828 18.5985 60.3227 18.727 60.631 18.7955C60.9564 18.864 61.3676 18.8983 61.8643 18.8983H64.2025L63.74 21.0823H61.89C60.8622 21.0823 60.0143 21.0052 59.3463 20.851C58.6954 20.6968 58.1729 20.4399 57.7789 20.0802C57.4021 19.7033 57.1366 19.2066 56.9824 18.5899C56.8454 17.9733 56.7769 17.2024 56.7769 16.2775V4.66372Z" fill="#571459"/>
<path d="M66.362 7.7984H69.0599V21.0823H66.362V7.7984ZM69.3939 3.8672C69.3939 4.46673 69.2569 4.90353 68.9828 5.1776C68.7258 5.43454 68.2976 5.56301 67.6981 5.56301C67.0985 5.56301 66.6617 5.43454 66.3877 5.1776C66.1307 4.90353 66.0023 4.46673 66.0023 3.8672C66.0023 3.26767 66.1307 2.83943 66.3877 2.58249C66.6617 2.30842 67.0985 2.17139 67.6981 2.17139C68.2976 2.17139 68.7258 2.30842 68.9828 2.58249C69.2569 2.83943 69.3939 3.26767 69.3939 3.8672Z" fill="#571459"/>
<path d="M77.9167 9.9824C77.2144 9.9824 76.6406 10.0252 76.1952 10.1109C75.7498 10.1794 75.3987 10.3507 75.1417 10.6248C74.8848 10.8817 74.7049 11.2585 74.6022 11.7553C74.5165 12.252 74.4737 12.9201 74.4737 13.7594V15.1212C74.4737 15.9606 74.5251 16.6286 74.6279 17.1254C74.7306 17.6221 74.9105 18.0075 75.1674 18.2816C75.4415 18.5385 75.8012 18.7098 76.2466 18.7955C76.692 18.864 77.2487 18.8983 77.9167 18.8983C78.8588 18.8983 79.5954 18.8983 80.1264 18.8983C80.6745 18.8811 81.1542 18.864 81.5653 18.8469L81.1028 21.0823C80.6574 21.0994 80.1264 21.108 79.5097 21.108C78.8931 21.1251 78.3621 21.1336 77.9167 21.1336C76.769 21.1336 75.8012 21.0309 75.0133 20.8253C74.2253 20.6198 73.583 20.2772 73.0862 19.7976C72.6066 19.3179 72.2554 18.7013 72.0328 17.9476C71.8272 17.1768 71.7244 16.2346 71.7244 15.1212V13.7594C71.7244 12.646 71.8272 11.7125 72.0328 10.9588C72.2554 10.188 72.6066 9.56273 73.0862 9.08311C73.583 8.60348 74.2253 8.26089 75.0133 8.05534C75.8012 7.84979 76.769 7.74701 77.9167 7.74701C78.4135 7.74701 78.9787 7.75558 79.6125 7.77271C80.2634 7.77271 80.8972 7.78984 81.5139 7.82409L81.0514 10.0595C80.3491 10.0252 79.7581 10.0081 79.2785 10.0081C78.7989 9.99097 78.3449 9.9824 77.9167 9.9824Z" fill="#571459"/>
<path d="M93.3296 20.1833C94.169 20.1833 94.8627 20.1062 95.4109 19.952C95.959 19.7807 96.3872 19.5066 96.6956 19.1298C97.0039 18.7529 97.218 18.2648 97.3379 17.6652C97.4578 17.0486 97.5178 16.2949 97.5178 15.4041V13.5028C97.5178 12.5093 97.4321 11.7042 97.2608 11.0875C97.0895 10.4537 96.8326 9.97412 96.49 9.64866C96.1474 9.30608 95.7021 9.07483 95.1539 8.95492C94.6229 8.83502 93.9977 8.77506 93.2782 8.77506C92.5246 8.77506 91.8736 8.83502 91.3255 8.95492C90.7945 9.07483 90.3577 9.30608 90.0151 9.64866C89.6725 9.99125 89.4156 10.4709 89.2443 11.0875C89.073 11.7042 88.9873 12.5093 88.9873 13.5028V15.9437C88.9873 16.7831 89.0901 17.4768 89.2957 18.0249C89.5012 18.5731 89.7924 19.0099 90.1693 19.3353C90.5461 19.6437 91 19.8664 91.531 20.0034C92.0792 20.1233 92.6787 20.1833 93.3296 20.1833ZM93.3039 7.46466C94.2118 7.46466 95.0169 7.55031 95.7192 7.72161C96.4386 7.8929 97.0381 8.20123 97.5178 8.64659C98.0145 9.09196 98.3914 9.70862 98.6483 10.4966C98.9053 11.2674 99.0337 12.2695 99.0337 13.5028V15.4041C99.0337 16.5689 98.9224 17.5368 98.6997 18.3076C98.477 19.0784 98.1259 19.7036 97.6462 20.1833C97.1837 20.6629 96.5928 20.9969 95.8733 21.1853C95.1539 21.3909 94.306 21.4937 93.3296 21.4937C92.319 21.4937 91.4368 21.3481 90.6831 21.0569C89.9466 20.7485 89.3813 20.2946 88.9873 19.6951V25.579H87.4971V13.5028C87.4971 12.3209 87.6255 11.3445 87.8825 10.5737C88.1394 9.7857 88.5077 9.16904 88.9873 8.72368C89.4841 8.26118 90.0922 7.93572 90.8116 7.7473C91.531 7.55888 92.3618 7.46466 93.3039 7.46466Z" fill="#4B4F58"/>
<path d="M102.226 1.99182H103.716V21.0825H102.226V1.99182Z" fill="#4B4F58"/>
<path d="M108.217 17.1257C108.217 17.5881 108.268 17.9821 108.371 18.3076C108.491 18.633 108.679 18.9071 108.936 19.1298C109.21 19.3525 109.57 19.5152 110.015 19.618C110.478 19.7208 111.051 19.7721 111.737 19.7721H116.105V16.6889C116.105 16.1407 116.01 15.6953 115.822 15.3528C115.651 14.993 115.394 14.7104 115.051 14.5049C114.709 14.2993 114.28 14.1537 113.766 14.0681C113.27 13.9824 112.696 13.9396 112.045 13.9396H111.711C110.443 13.9396 109.544 14.1537 109.013 14.5819C108.482 14.993 108.217 15.7296 108.217 16.7916V17.1257ZM117.544 19.618C117.544 20.2004 117.432 20.5944 117.209 20.7999C117.004 20.9883 116.584 21.0825 115.95 21.0825H111.737C109.972 21.0825 108.705 20.7742 107.934 20.1576C107.163 19.5409 106.778 18.5388 106.778 17.1513V16.7916C106.778 15.3528 107.163 14.3079 107.934 13.6569C108.722 13.006 109.989 12.6806 111.737 12.6806C112.919 12.6806 113.861 12.7919 114.563 13.0146C115.265 13.2373 115.779 13.5456 116.105 13.9396V12.3979C116.105 11.7813 116.045 11.2674 115.925 10.8563C115.805 10.4281 115.591 10.094 115.282 9.85422C114.974 9.59728 114.546 9.41742 113.998 9.31464C113.45 9.19474 112.756 9.13478 111.917 9.13478C111.283 9.13478 110.615 9.14335 109.912 9.16048C109.21 9.16048 108.576 9.17761 108.011 9.21187L108.294 7.87577C108.773 7.85864 109.339 7.85008 109.989 7.85008C110.64 7.83295 111.283 7.82438 111.917 7.82438C112.944 7.82438 113.809 7.91003 114.512 8.08132C115.231 8.23549 115.813 8.49243 116.259 8.85215C116.704 9.19474 117.03 9.64867 117.235 10.2139C117.441 10.7621 117.544 11.4387 117.544 12.2438V19.618Z" fill="#4B4F58"/>
<path d="M121.246 4.53554L122.736 4.2529V7.87577H128.157L127.875 9.16048H122.736V16.5861C122.736 17.2199 122.779 17.7423 122.864 18.1534C122.95 18.5645 123.104 18.89 123.327 19.1298C123.567 19.3696 123.884 19.5409 124.278 19.6437C124.689 19.7293 125.22 19.7721 125.871 19.7721H127.849L127.566 21.0825H125.871C124.997 21.0825 124.26 21.0226 123.661 20.9027C123.079 20.7657 122.607 20.5344 122.248 20.2089C121.888 19.8664 121.631 19.4124 121.477 18.8472C121.323 18.2648 121.246 17.5196 121.246 16.6118V4.53554Z" fill="#4B4F58"/>
<path d="M136.381 3.25083C135.593 3.25083 134.934 3.31078 134.403 3.43069C133.889 3.53347 133.469 3.75615 133.144 4.09874C132.836 4.4242 132.613 4.89525 132.476 5.51191C132.356 6.11144 132.296 6.89939 132.296 7.87577H137.512L137.229 9.16048H132.296V21.0825H130.806V7.69591C130.806 6.61676 130.9 5.7089 131.088 4.97234C131.294 4.23577 131.611 3.64481 132.039 3.19944C132.484 2.73695 133.05 2.41149 133.735 2.22307C134.437 2.03464 135.285 1.94043 136.279 1.94043C136.604 1.94043 136.947 1.94043 137.306 1.94043C137.666 1.94043 138.111 1.95756 138.642 1.99182L138.36 3.30222C138.017 3.28509 137.657 3.27652 137.281 3.27652C136.904 3.2594 136.604 3.25083 136.381 3.25083Z" fill="#4B4F58"/>
<path d="M144.153 7.46466C145.164 7.46466 146.037 7.56744 146.774 7.773C147.511 7.96142 148.11 8.28688 148.573 8.74937C149.052 9.21187 149.403 9.83709 149.626 10.625C149.849 11.3959 149.96 12.3551 149.96 13.5028V15.4555C149.96 16.6032 149.849 17.5625 149.626 18.3333C149.403 19.1041 149.052 19.7293 148.573 20.2089C148.11 20.6714 147.511 20.9969 146.774 21.1853C146.037 21.3909 145.164 21.4937 144.153 21.4937C143.143 21.4937 142.269 21.3909 141.532 21.1853C140.796 20.9969 140.188 20.6714 139.708 20.2089C139.246 19.7293 138.903 19.1041 138.68 18.3333C138.458 17.5625 138.346 16.6032 138.346 15.4555V13.5028C138.346 12.3551 138.458 11.3959 138.68 10.625C138.903 9.85422 139.246 9.23756 139.708 8.77506C140.188 8.29544 140.796 7.96142 141.532 7.773C142.269 7.56744 143.143 7.46466 144.153 7.46466ZM148.444 13.5028C148.444 12.5607 148.367 11.7813 148.213 11.1646C148.059 10.548 147.81 10.0683 147.468 9.72575C147.125 9.36603 146.68 9.11765 146.132 8.98062C145.583 8.84358 144.924 8.77506 144.153 8.77506C143.365 8.77506 142.697 8.84358 142.149 8.98062C141.618 9.10052 141.181 9.34034 140.839 9.70005C140.496 10.0426 140.248 10.5223 140.094 11.1389C139.939 11.7385 139.862 12.5264 139.862 13.5028V15.4555C139.862 16.4148 139.939 17.2027 140.094 17.8194C140.248 18.4189 140.496 18.8985 140.839 19.2583C141.181 19.6009 141.618 19.8407 142.149 19.9777C142.697 20.1147 143.365 20.1833 144.153 20.1833C144.941 20.1833 145.601 20.1233 146.132 20.0034C146.68 19.8664 147.125 19.6265 147.468 19.284C147.81 18.9242 148.059 18.4446 148.213 17.8451C148.367 17.2284 148.444 16.4319 148.444 15.4555V13.5028Z" fill="#4B4F58"/>
<path d="M153.137 21.0825V12.3722C153.137 11.4815 153.232 10.7449 153.42 10.1625C153.626 9.58015 153.925 9.11765 154.319 8.77506C154.713 8.41535 155.202 8.16697 155.784 8.02994C156.366 7.8929 157.043 7.82438 157.814 7.82438C158.379 7.82438 158.919 7.82438 159.433 7.82438C159.946 7.82438 160.349 7.83295 160.64 7.85008L160.358 9.18617C160.135 9.16904 159.775 9.16048 159.278 9.16048C158.799 9.14335 158.336 9.13478 157.891 9.13478C157.24 9.13478 156.7 9.19474 156.272 9.31464C155.861 9.41742 155.536 9.59728 155.296 9.85422C155.056 10.1112 154.885 10.4623 154.782 10.9077C154.679 11.3359 154.628 11.8841 154.628 12.5521V21.0825H153.137Z" fill="#4B4F58"/>
<path d="M162.522 21.0825V11.7813C162.522 10.2225 162.942 9.11765 163.781 8.46674C164.637 7.79869 165.828 7.46466 167.352 7.46466C168.466 7.46466 169.365 7.64452 170.05 8.00424C170.735 8.36396 171.215 8.84358 171.489 9.44311C171.78 8.84358 172.277 8.36396 172.979 8.00424C173.682 7.64452 174.564 7.46466 175.626 7.46466C176.38 7.46466 177.056 7.54175 177.656 7.69591C178.255 7.83295 178.761 8.07276 179.172 8.41535C179.583 8.74081 179.9 9.17761 180.122 9.72575C180.345 10.2739 180.456 10.9591 180.456 11.7813V21.0825H178.966V11.9097C178.966 10.7449 178.701 9.9313 178.17 9.46881C177.656 9.00631 176.808 8.77506 175.626 8.77506C174.461 8.77506 173.605 8.99775 173.056 9.44311C172.525 9.88848 172.26 10.6764 172.26 11.807V21.0825H170.744V11.9097C170.744 10.7449 170.47 9.9313 169.922 9.46881C169.391 9.00631 168.534 8.77506 167.352 8.77506C166.102 8.77506 165.228 9.03201 164.732 9.54589C164.252 10.0426 164.012 10.8392 164.012 11.9354V21.0825H162.522Z" fill="#4B4F58"/>
</svg>
